<svg width="60" height="54" viewBox="0 0 60 54" fill="none" xmlns="http://www.w3.org/2000/svg">
<path d="M2 11.25L11.25 2H20.5C20.5 3.21474 20.7393 4.41755 21.2041 5.53982C21.669 6.66209 22.3503 7.68178 23.2093 8.54074C24.0683 9.39969 25.088 10.081 26.21 10.5459C27.3324 11.0107 28.5352 11.25 29.75 11.25C30.9648 11.25 32.1676 11.0107 33.29 10.5459C34.412 10.081 35.4317 9.39969 36.2907 8.54074C37.1497 7.68178 37.8311 6.66209 38.2958 5.53982C38.7607 4.41755 39 3.21474 39 2H48.25L57.5 11.25L55.9583 26.6667L48.25 22.0417V51.3333H11.25V22.0417L3.54167 26.6667L2 11.25Z" stroke="black" stroke-width="4" stroke-linecap="square" stroke-linejoin="round"/>
</svg>
