<svg width="44" height="44" viewBox="0 0 44 44" fill="none" xmlns="http://www.w3.org/2000/svg">
<path d="M33 17.4168V26.5835M11 17.4168V26.5835M7.33333 31.1668H36.6667C37.6792 31.1668 38.5 30.346 38.5 29.3335V14.6668C38.5 13.6543 37.6792 12.8335 36.6667 12.8335H7.33333C6.32082 12.8335 5.5 13.6543 5.5 14.6668V29.3335C5.5 30.346 6.32082 31.1668 7.33333 31.1668ZM26.5833 22.0002C26.5833 24.5314 24.5313 26.5835 22 26.5835C19.4687 26.5835 17.4167 24.5314 17.4167 22.0002C17.4167 19.4689 19.4687 17.4168 22 17.4168C24.5313 17.4168 26.5833 19.4689 26.5833 22.0002Z" stroke="#001A72" stroke-width="3" stroke-linecap="round" stroke-linejoin="round"/>
</svg>
