<svg width="27" height="27" viewBox="0 0 27 27" fill="none" xmlns="http://www.w3.org/2000/svg">
<path d="M16.3125 7.3125C17.1418 7.4743 17.965 7.84003 18.5625 8.4375C19.16 9.03497 19.5257 9.85819 19.6875 10.6875M16.875 3.375C18.5979 3.56641 20.1484 4.39995 21.375 5.625C22.6016 6.85005 23.4314 8.40228 23.625 10.125M23.6244 18.5363V21.5847C23.6292 22.7501 22.5813 23.7232 21.4048 23.617C11.2501 23.625 3.37506 15.6769 3.38301 5.59034C3.27705 4.42007 4.24533 3.37619 5.40918 3.3751H8.46371C8.95783 3.37024 9.43688 3.54488 9.81154 3.86645C10.8767 4.78068 11.5618 7.88374 11.2983 9.11732C11.0924 10.0804 10.1216 10.7542 9.46153 11.4129C10.911 13.957 13.0215 16.0633 15.5706 17.5099C16.2306 16.8511 16.9058 15.8823 17.8707 15.6769C19.1087 15.4134 22.2317 16.0994 23.1423 17.172C23.4652 17.5524 23.6368 18.0379 23.6244 18.5363Z" stroke="white" stroke-width="1.5" stroke-linecap="round" stroke-linejoin="round"/>
</svg>
