<svg width="27" height="27" viewBox="0 0 27 27" fill="none" xmlns="http://www.w3.org/2000/svg">
<path d="M13.25 19C13.25 19.4142 13.5858 19.75 14 19.75C14.4142 19.75 14.75 19.4142 14.75 19H13.25ZM14.75 12C14.75 11.5858 14.4142 11.25 14 11.25C13.5858 11.25 13.25 11.5858 13.25 12H14.75ZM13.25 9.00996C13.25 9.42418 13.5858 9.75996 14 9.75996C14.4142 9.75996 14.75 9.42418 14.75 9.00996H13.25ZM14.75 8.99997C14.75 8.58576 14.4142 8.24997 14 8.24997C13.5858 8.24997 13.25 8.58576 13.25 8.99997H14.75ZM14.75 19V12H13.25V19H14.75ZM14.75 9.00996V8.99997H13.25V9.00996H14.75ZM22.25 14C22.25 18.5563 18.5563 22.25 14 22.25V23.75C19.3848 23.75 23.75 19.3848 23.75 14H22.25ZM14 22.25C9.44365 22.25 5.75 18.5563 5.75 14H4.25C4.25 19.3848 8.61522 23.75 14 23.75V22.25ZM5.75 14C5.75 9.44365 9.44365 5.75 14 5.75V4.25C8.61522 4.25 4.25 8.61522 4.25 14H5.75ZM14 5.75C18.5563 5.75 22.25 9.44365 22.25 14H23.75C23.75 8.61522 19.3848 4.25 14 4.25V5.75Z" fill="#001A72"/>
</svg>
