<svg width="52" height="52" viewBox="0 0 52 52" fill="none" xmlns="http://www.w3.org/2000/svg">
<path d="M31.4167 14.0833C33.0139 14.3949 34.5993 15.0993 35.75 16.25C36.9007 17.4007 37.6051 18.9862 37.9167 20.5833M32.5 6.5C35.8182 6.86864 38.8043 8.47399 41.1667 10.8333C43.529 13.1927 45.1271 16.1822 45.5 19.5M45.4989 35.6995V41.5705C45.508 43.815 43.49 45.6892 41.2241 45.4846C21.6669 45.5 6.50013 30.1925 6.51544 10.7666C6.31137 8.51273 8.17622 6.5023 10.4177 6.50019H16.3005C17.2521 6.49083 18.1748 6.82717 18.8963 7.44649C20.9477 9.20723 22.2673 15.1835 21.7596 17.5593C21.3632 19.4141 19.4934 20.7118 18.2222 21.9804C21.0137 26.8801 25.0785 30.9368 29.9877 33.7229C31.2589 32.4541 32.5594 30.5881 34.4177 30.1925C36.8019 29.6851 42.8166 31.0063 44.5703 33.072C45.1923 33.8046 45.5227 34.7397 45.4989 35.6995Z" stroke="#001A72" stroke-width="3" stroke-linecap="round" stroke-linejoin="round"/>
</svg>
